<svg width="34" height="34" viewBox="0 0 34 34" fill="none" xmlns="http://www.w3.org/2000/svg">
<path fill-rule="evenodd" clip-rule="evenodd" d="M17 0H0V17V34H17H18V33.9712C17.6689 33.9905 17.3359 34 17 34C7.61133 34 0 26.3889 0 17C0 7.61108 7.61133 0 17 0ZM34 17V0H17C26.3887 0 34 7.61108 34 17ZM34 34V17C34 23.1506 30.7334 28.5381 25.8408 31.5229C28.7212 33.1375 31.8101 33.8508 34 34Z" fill="white"/>
<path d="M23.2857 14.8096C23.4638 14.8096 23.6419 14.8201 23.8095 14.8411V10.483C23.8095 9.40393 22.9295 8.52393 21.8505 8.52393H7.95905C6.88 8.52393 6 9.40393 6 10.483V21.2315C6 22.3106 6.88 23.1906 7.95905 23.1906H18.1524C17.7543 22.4049 17.5238 21.5144 17.5238 20.5715C17.5238 17.3868 20.101 14.8096 23.2857 14.8096ZM14.8 16.9049L8.09524 12.9134V10.6192H8.33619L14.8105 14.4744L21.4419 10.6192H21.7143V12.882L14.8 16.9049Z" fill="white"/>
<path d="M23.8091 16.9048L22.332 18.3819L23.9872 20.0476H19.6187V22.1429H23.9872L22.332 23.8086L23.8091 25.2857L27.9996 21.0953L23.8091 16.9048Z" fill="white"/>
</svg>
