<svg width="34" height="34" viewBox="0 0 34 34" fill="none" xmlns="http://www.w3.org/2000/svg">
<path fill-rule="evenodd" clip-rule="evenodd" d="M17 0H0V17V34H17H18V33.9711C17.6691 33.9903 17.3357 34 17 34C7.61116 34 0 26.3888 0 17C0 7.61116 7.61116 0 17 0ZM34 17V0H17C26.3888 0 34 7.61116 34 17ZM34 34V17C34 23.1505 30.7337 28.5382 25.8411 31.523C28.7215 33.1375 31.8103 33.8507 34 34Z" fill="black"/>
<path d="M24.2857 15.8096C24.4638 15.8096 24.6419 15.8201 24.8095 15.8411V11.483C24.8095 10.4039 23.9295 9.52393 22.8505 9.52393H8.95905C7.88 9.52393 7 10.4039 7 11.483V22.2315C7 23.3106 7.88 24.1906 8.95905 24.1906H19.1524C18.7543 23.4049 18.5238 22.5144 18.5238 21.5715C18.5238 18.3868 21.101 15.8096 24.2857 15.8096ZM15.8 17.9049L9.09524 13.9134V11.6192H9.33619L15.8105 15.4744L22.4419 11.6192H22.7143V13.882L15.8 17.9049Z" fill="#0064FF"/>
<path d="M24.8091 17.9048L23.332 19.3819L24.9872 21.0476H20.6187V23.1429H24.9872L23.332 24.8086L24.8091 26.2857L28.9996 22.0953L24.8091 17.9048Z" fill="#0064FF"/>
</svg>
